<svg width="60" height="60" viewBox="0 0 60 60" fill="none" xmlns="http://www.w3.org/2000/svg">
<path d="M31.3 38.7L41.8 33.8L46.7 23.3L36.2 28.2L31.3 38.7ZM39 32.4C38.6033 32.4 38.2711 32.2656 38.0032 31.9968C37.7353 31.728 37.6009 31.3957 37.6 31C37.5991 30.6043 37.7335 30.272 38.0032 30.0032C38.2729 29.7344 38.6052 29.6 39 29.6C39.3948 29.6 39.7275 29.7344 39.9982 30.0032C40.2689 30.272 40.4028 30.6043 40.4 31C40.3972 31.3957 40.2628 31.7285 39.9968 31.9982C39.7308 32.2679 39.3985 32.4019 39 32.4ZM39 45C37.0633 45 35.2433 44.6323 33.54 43.8968C31.8367 43.1613 30.355 42.1641 29.095 40.905C27.835 39.6459 26.8377 38.1643 26.1032 36.46C25.3687 34.7557 25.0009 32.9357 25 31C24.9991 29.0643 25.3668 27.2443 26.1032 25.54C26.8396 23.8357 27.8369 22.3541 29.095 21.095C30.3531 19.8359 31.8348 18.8387 33.54 18.1032C35.2452 17.3677 37.0652 17 39 17C40.9348 17 42.7548 17.3677 44.46 18.1032C46.1652 18.8387 47.6469 19.8359 48.905 21.095C50.1631 22.3541 51.1609 23.8357 51.8982 25.54C52.6355 27.2443 53.0028 29.0643 53 31C52.9972 32.9357 52.6294 34.7557 51.8968 36.46C51.1641 38.1643 50.1669 39.6459 48.905 40.905C47.6431 42.1641 46.1615 43.1618 44.46 43.8982C42.7585 44.6346 40.9385 45.0019 39 45Z" fill="#EFF2F4"/>
</svg>
