<svg width="16" height="15" viewBox="0 0 16 15" fill="none" xmlns="http://www.w3.org/2000/svg">
<path d="M15.587 11.4779L9.964 1.14145C9.06058 -0.379471 6.85831 -0.381492 5.95368 1.14145L0.331003 11.4779C-0.592533 13.032 0.525591 15 2.3357 15H13.5818C15.3904 15 16.5105 13.0336 15.587 11.4779ZM7.95884 13.1346C7.44469 13.1346 7.02616 12.7161 7.02616 12.202C7.02616 11.6878 7.44469 11.2693 7.95884 11.2693C8.47299 11.2693 8.89152 11.6878 8.89152 12.202C8.89152 12.7161 8.47299 13.1346 7.95884 13.1346ZM8.89152 9.40394C8.89152 9.91809 8.47299 10.3366 7.95884 10.3366C7.44469 10.3366 7.02616 9.91809 7.02616 9.40394V4.74055C7.02616 4.2264 7.44469 3.80788 7.95884 3.80788C8.47299 3.80788 8.89152 4.2264 8.89152 4.74055V9.40394Z" fill="#E4CC54"/>
</svg>
