<svg width="28" height="28" viewBox="0 0 28 28" fill="none" xmlns="http://www.w3.org/2000/svg">
<path d="M8.56033 15.9596C10.4403 15.9596 11.947 17.4809 11.947 19.3742V23.9196C11.947 25.7996 10.4403 27.3329 8.56033 27.3329H4.05366C2.18699 27.3329 0.666992 25.7996 0.666992 23.9196V19.3742C0.666992 17.4809 2.18699 15.9596 4.05366 15.9596H8.56033ZM23.9471 15.9596C25.8138 15.9596 27.3338 17.4809 27.3338 19.3742V23.9196C27.3338 25.7996 25.8138 27.3329 23.9471 27.3329H19.4405C17.5605 27.3329 16.0538 25.7996 16.0538 23.9196V19.3742C16.0538 17.4809 17.5605 15.9596 19.4405 15.9596H23.9471ZM8.56033 0.666626C10.4403 0.666626 11.947 2.19996 11.947 4.08129V8.62663C11.947 10.52 10.4403 12.04 8.56033 12.04H4.05366C2.18699 12.04 0.666992 10.52 0.666992 8.62663V4.08129C0.666992 2.19996 2.18699 0.666626 4.05366 0.666626H8.56033ZM23.9471 0.666626C25.8138 0.666626 27.3338 2.19996 27.3338 4.08129V8.62663C27.3338 10.52 25.8138 12.04 23.9471 12.04H19.4405C17.5605 12.04 16.0538 10.52 16.0538 8.62663V4.08129C16.0538 2.19996 17.5605 0.666626 19.4405 0.666626H23.9471Z" fill="#EFF2F4"/>
</svg>
