<svg width="28" height="28" viewBox="0 0 28 28" fill="none" xmlns="http://www.w3.org/2000/svg">
<path d="M20.2207 0.680406C22.1387 0.56053 24.0301 1.22651 25.4553 2.53182C26.7607 3.95702 27.4267 5.84839 27.3201 7.77973V20.2202C27.44 22.1515 26.7607 24.0429 25.4687 25.4681C24.0435 26.7734 22.1387 27.4394 20.2207 27.3195H7.78015C5.8488 27.4394 3.95741 26.7734 2.53221 25.4681C1.22688 24.0429 0.560896 22.1515 0.680773 20.2202V7.77973C0.560896 5.84839 1.22688 3.95702 2.53221 2.53182C3.95741 1.22651 5.8488 0.56053 7.78015 0.680406H20.2207ZM19.8744 6.76744C19.0486 5.94163 17.7166 5.94163 16.8908 6.76744L15.9984 7.67317C15.8652 7.80637 15.8652 8.0328 15.9984 8.166C15.9984 8.166 16.0245 8.19198 16.0711 8.23824L16.3987 8.56407C16.5882 8.75263 16.8248 8.98811 17.0623 9.2249L17.8677 10.03C18.0358 10.1988 18.1473 10.3119 18.1562 10.3238C18.3027 10.4836 18.3959 10.6967 18.3959 10.9365C18.3959 11.416 18.0097 11.8156 17.5168 11.8156C17.2904 11.8156 17.0773 11.7223 16.9308 11.5758L14.7064 9.36476C14.5998 9.2582 14.4133 9.2582 14.3068 9.36476L7.95331 15.7182C7.51376 16.1577 7.26069 16.7438 7.24737 17.3698L7.16745 20.5265C7.16745 20.6997 7.22073 20.8595 7.3406 20.9794C7.46048 21.0993 7.62032 21.1659 7.79347 21.1659H10.9236C11.5629 21.1659 12.1756 20.9128 12.6418 20.4599L21.606 11.4692C22.4185 10.6434 22.4185 9.31148 21.606 8.49898L19.8744 6.76744Z" fill="white"/>
</svg>
