<svg width="28" height="28" viewBox="0 0 28 28" fill="none" xmlns="http://www.w3.org/2000/svg">
<path d="M19.7787 0.666626C24.2978 0.666626 27.3337 3.83744 27.3337 8.55559V19.4443C27.3337 24.1625 24.2978 27.3333 19.7774 27.3333H8.2219C3.70285 27.3333 0.666992 24.1625 0.666992 19.4443V8.55559C0.666992 3.83744 3.70285 0.666626 8.2219 0.666626H19.7787ZM21.2491 14.7334C19.8199 13.8417 18.7164 15.0939 18.4188 15.4943C18.1318 15.8809 17.8851 16.3075 17.625 16.734C16.9895 17.7867 16.2615 19.0003 15.0011 19.7062C13.1696 20.7203 11.7793 19.786 10.7791 19.1063C10.4036 18.8531 10.0389 18.6137 9.6756 18.454C8.77996 18.0674 7.97416 18.5077 6.7782 20.0268C6.15072 20.8207 5.5286 21.6078 4.89844 22.3921C4.52168 22.8613 4.61151 23.5851 5.11966 23.8988C5.93083 24.3983 6.92032 24.6666 8.03852 24.6666H19.2755C19.9097 24.6666 20.5452 24.5799 21.1512 24.3818C22.5161 23.936 23.5995 22.915 24.1653 21.5665C24.6426 20.4327 24.8746 19.0567 24.4281 17.9119C24.2793 17.5321 24.0567 17.1785 23.7443 16.8675C22.9251 16.0543 22.1595 15.2948 21.2491 14.7334ZM9.33214 5.99996C7.49394 5.99996 6.00033 7.4956 6.00033 9.33329C6.00033 11.171 7.49394 12.6666 9.33214 12.6666C11.169 12.6666 12.6639 11.171 12.6639 9.33329C12.6639 7.4956 11.169 5.99996 9.33214 5.99996Z" fill="#EFF2F4"/>
</svg>
